<svg xmlns="http://www.w3.org/2000/svg" version="1.1" xmlns:xlink="http://www.w3.org/1999/xlink" xmlns:svgjs="http://svgjs.dev/svgjs" viewBox="0 0 2400 800"><defs><linearGradient x1="50%" y1="0%" x2="50%" y2="100%" id="sssurf-grad"><stop stop-color="hsla(119, 69%, 63%, 1.00)" stop-opacity="1" offset="0%"></stop><stop stop-color="hsla(105, 50%, 70%, 1.00)" stop-opacity="1" offset="100%"></stop></linearGradient></defs><g fill="url(#sssurf-grad)" transform="matrix(1,0,0,1,10.1300048828125,39.007938385009766)"><path d="M-10,10C25.416666666666664,14.375,91.25,38.5,160,31C228.75,23.5,253.33333333333331,-27.041666666666668,320,-26C386.6666666666667,-24.958333333333332,413.3333333333333,31.625,480,36C546.6666666666666,40.375,573.3333333333334,-5,640,-5C706.6666666666666,-5,733.3333333333334,34.958333333333336,800,36C866.6666666666666,37.041666666666664,893.3333333333334,-1.0416666666666667,960,0C1026.6666666666667,1.0416666666666667,1053.3333333333333,43.083333333333336,1120,41C1186.6666666666667,38.916666666666664,1213.3333333333333,-7.916666666666666,1280,-10C1346.6666666666667,-12.083333333333334,1373.3333333333333,31.416666666666668,1440,31C1506.6666666666667,30.583333333333332,1533.3333333333333,-13.458333333333334,1600,-12C1666.6666666666667,-10.541666666666666,1693.3333333333333,36.958333333333336,1760,38C1826.6666666666667,39.041666666666664,1853.3333333333333,-8.458333333333334,1920,-7C1986.6666666666667,-5.541666666666666,2013.3333333333333,42.5,2080,45C2146.6666666666665,47.5,2173.3333333333335,3.75,2240,5C2306.6666666666665,6.25,2314.5833333333335,-31.291666666666657,2400,51C2485.4166666666665,133.29166666666666,3254.1666666666665,223.125,2650,400C2045.8333333333335,576.875,156.25,795.8333333333334,-500,900" transform="matrix(1,0,0,1,0,81)" opacity="0.05"></path><path d="M-10,10C25.416666666666664,14.375,91.25,38.5,160,31C228.75,23.5,253.33333333333331,-27.041666666666668,320,-26C386.6666666666667,-24.958333333333332,413.3333333333333,31.625,480,36C546.6666666666666,40.375,573.3333333333334,-5,640,-5C706.6666666666666,-5,733.3333333333334,34.958333333333336,800,36C866.6666666666666,37.041666666666664,893.3333333333334,-1.0416666666666667,960,0C1026.6666666666667,1.0416666666666667,1053.3333333333333,43.083333333333336,1120,41C1186.6666666666667,38.916666666666664,1213.3333333333333,-7.916666666666666,1280,-10C1346.6666666666667,-12.083333333333334,1373.3333333333333,31.416666666666668,1440,31C1506.6666666666667,30.583333333333332,1533.3333333333333,-13.458333333333334,1600,-12C1666.6666666666667,-10.541666666666666,1693.3333333333333,36.958333333333336,1760,38C1826.6666666666667,39.041666666666664,1853.3333333333333,-8.458333333333334,1920,-7C1986.6666666666667,-5.541666666666666,2013.3333333333333,42.5,2080,45C2146.6666666666665,47.5,2173.3333333333335,3.75,2240,5C2306.6666666666665,6.25,2314.5833333333335,-31.291666666666657,2400,51C2485.4166666666665,133.29166666666666,3254.1666666666665,223.125,2650,400C2045.8333333333335,576.875,156.25,795.8333333333334,-500,900" transform="matrix(1,0,0,1,0,162)" opacity="0.21"></path><path d="M-10,10C25.416666666666664,14.375,91.25,38.5,160,31C228.75,23.5,253.33333333333331,-27.041666666666668,320,-26C386.6666666666667,-24.958333333333332,413.3333333333333,31.625,480,36C546.6666666666666,40.375,573.3333333333334,-5,640,-5C706.6666666666666,-5,733.3333333333334,34.958333333333336,800,36C866.6666666666666,37.041666666666664,893.3333333333334,-1.0416666666666667,960,0C1026.6666666666667,1.0416666666666667,1053.3333333333333,43.083333333333336,1120,41C1186.6666666666667,38.916666666666664,1213.3333333333333,-7.916666666666666,1280,-10C1346.6666666666667,-12.083333333333334,1373.3333333333333,31.416666666666668,1440,31C1506.6666666666667,30.583333333333332,1533.3333333333333,-13.458333333333334,1600,-12C1666.6666666666667,-10.541666666666666,1693.3333333333333,36.958333333333336,1760,38C1826.6666666666667,39.041666666666664,1853.3333333333333,-8.458333333333334,1920,-7C1986.6666666666667,-5.541666666666666,2013.3333333333333,42.5,2080,45C2146.6666666666665,47.5,2173.3333333333335,3.75,2240,5C2306.6666666666665,6.25,2314.5833333333335,-31.291666666666657,2400,51C2485.4166666666665,133.29166666666666,3254.1666666666665,223.125,2650,400C2045.8333333333335,576.875,156.25,795.8333333333334,-500,900" transform="matrix(1,0,0,1,0,243)" opacity="0.37"></path><path d="M-10,10C25.416666666666664,14.375,91.25,38.5,160,31C228.75,23.5,253.33333333333331,-27.041666666666668,320,-26C386.6666666666667,-24.958333333333332,413.3333333333333,31.625,480,36C546.6666666666666,40.375,573.3333333333334,-5,640,-5C706.6666666666666,-5,733.3333333333334,34.958333333333336,800,36C866.6666666666666,37.041666666666664,893.3333333333334,-1.0416666666666667,960,0C1026.6666666666667,1.0416666666666667,1053.3333333333333,43.083333333333336,1120,41C1186.6666666666667,38.916666666666664,1213.3333333333333,-7.916666666666666,1280,-10C1346.6666666666667,-12.083333333333334,1373.3333333333333,31.416666666666668,1440,31C1506.6666666666667,30.583333333333332,1533.3333333333333,-13.458333333333334,1600,-12C1666.6666666666667,-10.541666666666666,1693.3333333333333,36.958333333333336,1760,38C1826.6666666666667,39.041666666666664,1853.3333333333333,-8.458333333333334,1920,-7C1986.6666666666667,-5.541666666666666,2013.3333333333333,42.5,2080,45C2146.6666666666665,47.5,2173.3333333333335,3.75,2240,5C2306.6666666666665,6.25,2314.5833333333335,-31.291666666666657,2400,51C2485.4166666666665,133.29166666666666,3254.1666666666665,223.125,2650,400C2045.8333333333335,576.875,156.25,795.8333333333334,-500,900" transform="matrix(1,0,0,1,0,324)" opacity="0.53"></path><path d="M-10,10C25.416666666666664,14.375,91.25,38.5,160,31C228.75,23.5,253.33333333333331,-27.041666666666668,320,-26C386.6666666666667,-24.958333333333332,413.3333333333333,31.625,480,36C546.6666666666666,40.375,573.3333333333334,-5,640,-5C706.6666666666666,-5,733.3333333333334,34.958333333333336,800,36C866.6666666666666,37.041666666666664,893.3333333333334,-1.0416666666666667,960,0C1026.6666666666667,1.0416666666666667,1053.3333333333333,43.083333333333336,1120,41C1186.6666666666667,38.916666666666664,1213.3333333333333,-7.916666666666666,1280,-10C1346.6666666666667,-12.083333333333334,1373.3333333333333,31.416666666666668,1440,31C1506.6666666666667,30.583333333333332,1533.3333333333333,-13.458333333333334,1600,-12C1666.6666666666667,-10.541666666666666,1693.3333333333333,36.958333333333336,1760,38C1826.6666666666667,39.041666666666664,1853.3333333333333,-8.458333333333334,1920,-7C1986.6666666666667,-5.541666666666666,2013.3333333333333,42.5,2080,45C2146.6666666666665,47.5,2173.3333333333335,3.75,2240,5C2306.6666666666665,6.25,2314.5833333333335,-31.291666666666657,2400,51C2485.4166666666665,133.29166666666666,3254.1666666666665,223.125,2650,400C2045.8333333333335,576.875,156.25,795.8333333333334,-500,900" transform="matrix(1,0,0,1,0,405)" opacity="0.68"></path><path d="M-10,10C25.416666666666664,14.375,91.25,38.5,160,31C228.75,23.5,253.33333333333331,-27.041666666666668,320,-26C386.6666666666667,-24.958333333333332,413.3333333333333,31.625,480,36C546.6666666666666,40.375,573.3333333333334,-5,640,-5C706.6666666666666,-5,733.3333333333334,34.958333333333336,800,36C866.6666666666666,37.041666666666664,893.3333333333334,-1.0416666666666667,960,0C1026.6666666666667,1.0416666666666667,1053.3333333333333,43.083333333333336,1120,41C1186.6666666666667,38.916666666666664,1213.3333333333333,-7.916666666666666,1280,-10C1346.6666666666667,-12.083333333333334,1373.3333333333333,31.416666666666668,1440,31C1506.6666666666667,30.583333333333332,1533.3333333333333,-13.458333333333334,1600,-12C1666.6666666666667,-10.541666666666666,1693.3333333333333,36.958333333333336,1760,38C1826.6666666666667,39.041666666666664,1853.3333333333333,-8.458333333333334,1920,-7C1986.6666666666667,-5.541666666666666,2013.3333333333333,42.5,2080,45C2146.6666666666665,47.5,2173.3333333333335,3.75,2240,5C2306.6666666666665,6.25,2314.5833333333335,-31.291666666666657,2400,51C2485.4166666666665,133.29166666666666,3254.1666666666665,223.125,2650,400C2045.8333333333335,576.875,156.25,795.8333333333334,-500,900" transform="matrix(1,0,0,1,0,486)" opacity="0.84"></path><path d="M-10,10C25.416666666666664,14.375,91.25,38.5,160,31C228.75,23.5,253.33333333333331,-27.041666666666668,320,-26C386.6666666666667,-24.958333333333332,413.3333333333333,31.625,480,36C546.6666666666666,40.375,573.3333333333334,-5,640,-5C706.6666666666666,-5,733.3333333333334,34.958333333333336,800,36C866.6666666666666,37.041666666666664,893.3333333333334,-1.0416666666666667,960,0C1026.6666666666667,1.0416666666666667,1053.3333333333333,43.083333333333336,1120,41C1186.6666666666667,38.916666666666664,1213.3333333333333,-7.916666666666666,1280,-10C1346.6666666666667,-12.083333333333334,1373.3333333333333,31.416666666666668,1440,31C1506.6666666666667,30.583333333333332,1533.3333333333333,-13.458333333333334,1600,-12C1666.6666666666667,-10.541666666666666,1693.3333333333333,36.958333333333336,1760,38C1826.6666666666667,39.041666666666664,1853.3333333333333,-8.458333333333334,1920,-7C1986.6666666666667,-5.541666666666666,2013.3333333333333,42.5,2080,45C2146.6666666666665,47.5,2173.3333333333335,3.75,2240,5C2306.6666666666665,6.25,2314.5833333333335,-31.291666666666657,2400,51C2485.4166666666665,133.29166666666666,3254.1666666666665,223.125,2650,400C2045.8333333333335,576.875,156.25,795.8333333333334,-500,900" transform="matrix(1,0,0,1,0,567)" opacity="1"></path></g></svg>